# xmcd CD database file
#
# Track frame offsets:
#	150
#	25205
#	49045
#	85617
#
# Disc length: 4440 seconds
#
# Revision: 0
# Processed by: cddbd v1.5PL3 Copyright (c) Steve Scherf et al.
# Submitted via: CDex 1.40Release
#
DISCID=23115604
DTITLE=タッキー＆翼 - To be,To be,Ten made To be
DYEAR=2003
DGENRE=Pop
TTITLE0=卒業〜さよならは明日のために〜
TTITLE1=To be,or not to be
TTITLE2=Brand-new song medley(生きてる証/風/LOVE&TOUGH)
TTITLE3=data
EXTD=YEAR: 2003 ID3G: 13
EXTT0=
EXTT1=
EXTT2=
EXTT3=
PLAYORDER=
